HIERARCHY
ROOT Hips
{
	OFFSET 51.700699 -41.235817 100.970993
	CHANNELS 6 Xposition Yposition Zposition Xrotation Yrotation Zrotation
	JOINT spine
	{
		OFFSET 0.000000 -0.507027 8.817047
		CHANNELS 3 Xrotation Yrotation Zrotation
		JOINT spine1
		{
			OFFSET 0.000000 0.000000 10.776604
			CHANNELS 3 Xrotation Yrotation Zrotation
			JOINT spine2
			{
				OFFSET 0.000000 -0.000004 10.325905
				CHANNELS 3 Xrotation Yrotation Zrotation
				JOINT Neck
				{
					OFFSET 0.000000 -1.263954 26.511002
					CHANNELS 3 Xrotation Yrotation Zrotation
					JOINT Head
					{
						OFFSET 0.000000 0.000000 8.009659
						CHANNELS 3 Xrotation Yrotation Zrotation
						End Site
						{
							OFFSET 0.000000 6.393856 19.387894
						}
					}
				}
				JOINT RightShoulder
				{
					OFFSET -4.347950 0.605423 11.151199
					CHANNELS 3 Xrotation Yrotation Zrotation
					JOINT RightArm
					{
						OFFSET 0.000000 -0.000004 14.625793
						CHANNELS 3 Xrotation Yrotation Zrotation
						JOINT RightArmRoll
						{
							OFFSET 0.000000 0.000000 7.383392
							CHANNELS 3 Xrotation Yrotation Zrotation
							JOINT RightForeArm
							{
								OFFSET 0.000000 -0.000004 21.505203
								CHANNELS 3 Xrotation Yrotation Zrotation
								JOINT RightForeArmRoll
								{
									OFFSET 0.000000 0.000000 8.285324
									CHANNELS 3 Xrotation Yrotation Zrotation
									JOINT RightHand
									{
										OFFSET 0.000000 -0.000004 16.626801
										CHANNELS 3 Xrotation Yrotation Zrotation
										End Site
										{
											OFFSET 0.000000 0.000000 0.100006
										}
									}
								}
							}
						}
					}
				}
				JOINT LeftShoulder
				{
					OFFSET 4.347950 0.605423 11.151199
					CHANNELS 3 Xrotation Yrotation Zrotation
					JOINT LeftArm
					{
						OFFSET 0.000000 -0.000004 14.625793
						CHANNELS 3 Xrotation Yrotation Zrotation
						JOINT LeftArmRoll
						{
							OFFSET 0.000000 0.000000 7.383392
							CHANNELS 3 Xrotation Yrotation Zrotation
							JOINT LeftForeArm
							{
								OFFSET 0.000000 -0.000004 21.505203
								CHANNELS 3 Xrotation Yrotation Zrotation
								JOINT LeftForeArmRoll
								{
									OFFSET 0.000000 0.000000 8.285309
									CHANNELS 3 Xrotation Yrotation Zrotation
									JOINT LeftHand
									{
										OFFSET 0.000000 -0.000004 16.626801
										CHANNELS 3 Xrotation Yrotation Zrotation
										End Site
										{
											OFFSET 0.000000 0.000000 0.100006
										}
									}
								}
							}
						}
					}
				}
			}
		}
	}
	JOINT RightUpLeg
	{
		OFFSET -7.815102 1.202171 -1.433090
		CHANNELS 3 Xrotation Yrotation Zrotation
		JOINT RightUpLegRoll
		{
			OFFSET 0.000000 -0.000004 19.495903
			CHANNELS 3 Xrotation Yrotation Zrotation
			JOINT RightLeg
			{
				OFFSET 0.000000 0.000004 -24.142700
				CHANNELS 3 Xrotation Yrotation Zrotation
				JOINT RightLegRoll
				{
					OFFSET 0.000000 -0.000004 24.221703
					CHANNELS 3 Xrotation Yrotation Zrotation
					JOINT RightFoot
					{
						OFFSET 0.000000 -0.000004 20.160507
						CHANNELS 3 Xrotation Yrotation Zrotation
						JOINT RightToeBase
						{
							OFFSET 0.000000 -0.000004 16.853195
							CHANNELS 3 Xrotation Yrotation Zrotation
							End Site
							{
								OFFSET 0.007145 0.940781 8.161865
							}
						}
					}
				}
			}
		}
	}
	JOINT LeftUpLeg
	{
		OFFSET 7.815102 1.202171 -1.433090
		CHANNELS 3 Xrotation Yrotation Zrotation
		JOINT LeftUpLegRoll
		{
			OFFSET 0.000000 -0.000004 19.495903
			CHANNELS 3 Xrotation Yrotation Zrotation
			JOINT LeftLeg
			{
				OFFSET 0.000000 -0.000004 24.142601
				CHANNELS 3 Xrotation Yrotation Zrotation
				JOINT LeftLegRoll
				{
					OFFSET 0.000000 -0.000004 24.445602
					CHANNELS 3 Xrotation Yrotation Zrotation
					JOINT LeftFoot
					{
						OFFSET 0.000000 -0.000004 19.936600
						CHANNELS 3 Xrotation Yrotation Zrotation
						JOINT LeftToeBase
						{
							OFFSET 0.000000 -0.000004 16.853195
							CHANNELS 3 Xrotation Yrotation Zrotation
							End Site
							{
								OFFSET -0.032013 0.940781 8.161865
							}
						}
					}
				}
			}
		}
	}
}
MOTION
Frames: 11
Frame Time: 0.041667
51.360100 -10.764816 51.679092 -23.863571 -1.541271 1.759089 2.512212 0.187213 -0.016027 9.027412 0.373077 -0.042050 10.672530 0.372548 -0.046518 29.270796 -0.198822 3.779210 -18.825224 4.701939 3.923297 -3.145464 -74.498868 -5.267391 100.288091 -56.367984 99.282592 0.000003 0.000001 0.000000 42.114356 -13.630495 4.081397 -0.000012 0.000026 -3.012120 -4.999601 -7.998721 -0.000025 -10.899633 68.506360 13.381041 110.452143 55.809360 -100.270053 0.000002 -0.000000 -0.000000 45.322318 12.214650 -3.812848 -0.000009 -0.000005 3.007050 -4.999842 7.998694 -0.000048 -72.918738 -163.328975 5.073900 179.999991 0.000006 -1.724003 75.625835 2.387635 1.763702 -0.000004 -0.000003 2.168841 73.512131 8.566227 -3.114817 25.458888 -7.355618 0.004771 -72.405818 168.638942 -2.297846 -0.000006 -0.000003 -1.299240 -105.555253 -4.250923 -3.637874 -0.000002 -0.000001 -1.727088 73.419910 -6.146211 -3.967986 25.456904 7.346638 -0.000003 
51.317898 -10.765915 51.611893 -23.866035 -1.546465 1.755494 2.512736 0.188493 -0.015790 9.028568 0.375647 -0.041650 10.673732 0.375123 -0.046148 29.304281 -0.189507 3.775624 -18.844632 4.717613 3.922358 -3.140413 -74.493731 -5.261473 100.291363 -56.369630 99.276219 0.000001 0.000001 -0.000000 42.119963 -13.632045 4.083748 -0.000015 0.000024 -3.012120 -4.999603 -7.998721 -0.000025 -10.919528 68.506784 13.403339 110.455176 55.806945 -100.271651 -0.000001 -0.000000 -0.000000 45.323930 12.213871 -3.812632 -0.000008 -0.000005 3.007050 -4.999846 7.998695 -0.000043 -72.917665 -163.330218 5.070170 179.999991 0.000007 -1.724002 75.628110 2.391074 1.766637 -0.000004 -0.000004 2.168910 73.509829 8.565949 -3.113381 25.458885 -7.355615 0.004771 -72.398899 168.640581 -2.301892 -0.000005 -0.000004 -1.299340 -105.553245 -4.250674 -3.636771 -0.000003 -0.000000 -1.727102 73.420538 -6.145278 -3.970618 25.456902 7.346645 -0.000005 
51.335800 -10.765015 51.640896 -23.869310 -1.552535 1.751583 2.513384 0.190008 -0.015461 9.030057 0.378692 -0.041077 10.675236 0.378174 -0.045612 29.337466 -0.182929 3.772180 -18.864317 4.735539 3.921402 -3.139190 -74.488841 -5.259720 100.294641 -56.370866 99.269805 -0.000005 -0.000001 0.000001 42.124939 -13.633655 4.086068 -0.000015 0.000024 -3.012120 -4.999603 -7.998718 -0.000024 -10.938451 68.506347 13.424510 110.459527 55.804087 -100.274649 0.000002 -0.000000 0.000001 45.325491 12.212881 -3.812315 -0.000008 -0.000004 3.007050 -4.999844 7.998695 -0.000046 -72.915910 -163.330846 5.065428 179.999991 0.000005 -1.724004 75.630753 2.394806 1.769721 -0.000003 -0.000004 2.169010 73.507630 8.565618 -3.112059 25.458883 -7.355617 0.004772 -72.390457 168.642138 -2.306103 -0.000005 -0.000005 -1.299460 -105.551018 -4.250086 -3.635609 -0.000003 -0.000001 -1.727109 73.421405 -6.144452 -3.973050 25.456906 7.346643 -0.000004 
51.319801 -10.759918 51.604301 -23.873290 -1.559200 1.747456 2.514125 0.191689 -0.015067 9.031781 0.382070 -0.040385 10.676941 0.381560 -0.044961 29.370455 -0.178265 3.768836 -18.884242 4.755053 3.920456 -3.140653 -74.484217 -5.260903 100.297961 -56.371802 99.263412 0.000001 0.000001 0.000000 42.129430 -13.635433 4.088450 -0.000014 0.000025 -3.012121 -4.999603 -7.998723 -0.000025 -10.956704 68.505349 13.444922 110.465394 55.801068 -100.279335 -0.000001 0.000001 0.000000 45.326921 12.211775 -3.811925 -0.000008 -0.000005 3.007048 -4.999846 7.998697 -0.000046 -72.913547 -163.330928 5.060172 179.999991 0.000006 -1.724003 75.633628 2.398742 1.773064 -0.000004 -0.000005 2.169129 73.505335 8.565342 -3.110727 25.458881 -7.355615 0.004770 -72.380778 168.643791 -2.310922 -0.000006 -0.000004 -1.299590 -105.548498 -4.249416 -3.634423 -0.000004 -0.000000 -1.727120 73.422601 -6.143607 -3.975461 25.456902 7.346642 -0.000005 
51.317902 -10.764420 51.600601 -23.877474 -1.566210 1.743218 2.514928 0.193465 -0.014637 9.033646 0.385639 -0.039625 10.678745 0.385138 -0.044243 29.403452 -0.174698 3.765550 -18.904398 4.775465 3.919522 -3.143656 -74.479770 -5.263761 100.301191 -56.372533 99.256917 0.000000 0.000001 -0.000000 42.133627 -13.637281 4.090830 -0.000013 0.000025 -3.012120 -4.999602 -7.998723 -0.000025 -10.974593 68.504058 13.464910 110.472566 55.797598 -100.285632 -0.000001 -0.000000 -0.000000 45.328236 12.210618 -3.811491 -0.000010 -0.000004 3.007049 -4.999844 7.998699 -0.000047 -72.910944 -163.330819 5.054581 179.999991 0.000006 -1.724002 75.636716 2.402784 1.776461 -0.000004 -0.000003 2.169268 73.503053 8.565085 -3.109388 25.458881 -7.355613 0.004771 -72.370267 168.645799 -2.317090 -0.000004 -0.000005 -1.299740 -105.545882 -4.248722 -3.633218 -0.000004 -0.000000 -1.727142 73.423905 -6.142786 -3.977868 25.456906 7.346643 -0.000005 
51.369202 -10.765118 51.687489 -23.881765 -1.573310 1.738936 2.515749 0.195263 -0.014197 9.035532 0.389255 -0.038848 10.680648 0.388763 -0.043509 29.436445 -0.171408 3.762277 -18.924562 4.796108 3.918595 -3.147035 -74.475310 -5.267033 100.304524 -56.373161 99.250538 -0.000002 0.000001 -0.000000 42.137824 -13.639126 4.093221 -0.000013 0.000024 -3.012120 -4.999602 -7.998723 -0.000025 -10.992386 68.502692 13.484783 110.478440 55.794572 -100.290325 0.000000 -0.000000 0.000001 45.329541 12.209391 -3.810990 -0.000007 -0.000006 3.007051 -4.999847 7.998699 -0.000044 -72.908199 -163.330546 5.048933 179.999991 0.000006 -1.724003 75.639721 2.406872 1.779931 -0.000004 -0.000004 2.169421 73.500772 8.564830 -3.108152 25.458885 -7.355619 0.004772 -72.359591 168.647698 -2.322978 -0.000005 -0.000005 -1.299890 -105.543170 -4.248000 -3.632021 -0.000002 -0.000001 -1.727159 73.425223 -6.141996 -3.980181 25.456907 7.346643 -0.000005 
51.361099 -10.762417 51.670601 -23.885849 -1.580238 1.734716 2.516526 0.197015 -0.013776 9.037362 0.392776 -0.038104 10.682453 0.392293 -0.042808 29.469439 -0.167575 3.758960 -18.944629 4.816294 3.917686 -3.149643 -74.470775 -5.269459 100.307803 -56.373991 99.244069 0.000001 0.000001 -0.000001 42.142113 -13.640948 4.095605 -0.000015 0.000024 -3.012120 -4.999603 -7.998720 -0.000026 -11.010402 68.501490 13.504902 110.484238 55.791461 -100.294949 0.000001 0.000000 0.000000 45.330951 12.208213 -3.810565 -0.000006 -0.000006 3.007049 -4.999845 7.998698 -0.000046 -72.905596 -163.330437 5.043344 179.999991 0.000006 -1.724002 75.642726 2.410892 1.783354 -0.000003 -0.000004 2.169549 73.498484 8.564549 -3.106817 25.458881 -7.355619 0.004771 -72.349353 168.649460 -2.328344 -0.000005 -0.000004 -1.300030 -105.540554 -4.247302 -3.630831 -0.000003 -0.000001 -1.727170 73.426432 -6.141203 -3.982400 25.456906 7.346645 -0.000004 
51.328999 -10.761124 51.602005 -23.889628 -1.586730 1.730647 2.517244 0.198648 -0.013401 9.039017 0.396060 -0.037448 10.684158 0.395584 -0.042191 29.502534 -0.162381 3.755569 -18.964556 4.835362 3.916799 -3.150347 -74.466158 -5.269820 100.310965 -56.374937 99.237512 -0.000002 -0.000000 -0.000000 42.146714 -13.642707 4.097981 -0.000015 0.000024 -3.012119 -4.999602 -7.998719 -0.000025 -11.028851 68.500664 13.525536 110.490024 55.788343 -100.299675 -0.000000 0.000000 0.000000 45.332396 12.207173 -3.810217 -0.000007 -0.000005 3.007048 -4.999844 7.998696 -0.000047 -72.903472 -163.330723 5.038307 179.999991 0.000006 -1.724003 75.645588 2.414768 1.786620 -0.000004 -0.000003 2.169669 73.496196 8.564291 -3.105580 25.458883 -7.355619 0.004773 -72.339934 168.651277 -2.333609 -0.000005 -0.000004 -1.300160 -105.538136 -4.246661 -3.629657 -0.000003 -0.000000 -1.727191 73.427518 -6.140368 -3.984919 25.456904 7.346645 -0.000003 
51.338299 -10.763426 51.617401 -23.892702 -1.592526 1.726828 2.517859 0.200093 -0.013100 9.040413 0.398962 -0.036928 10.685559 0.398492 -0.041706 29.535821 -0.155008 3.752046 -18.984133 4.852617 3.915933 -3.147977 -74.461179 -5.266811 100.314292 -56.376282 99.231181 0.000000 -0.000000 -0.000000 42.151908 -13.644342 4.100359 -0.000013 0.000023 -3.012121 -4.999602 -7.998723 -0.000027 -11.048073 68.500507 13.547060 110.494436 55.785577 -100.302721 0.000001 0.000001 0.000000 45.333878 12.206282 -3.809914 -0.000009 -0.000003 3.007051 -4.999845 7.998696 -0.000046 -72.901867 -163.331488 5.033931 179.999991 0.000005 -1.724003 75.648020 2.418425 1.789590 -0.000005 -0.000004 2.169770 73.493908 8.564011 -3.104146 25.458883 -7.355617 0.004771 -72.331847 168.653094 -2.338343 -0.000006 -0.000005 -1.300280 -105.536005 -4.246095 -3.628497 -0.000003 -0.000001 -1.727199 73.428379 -6.139481 -3.987440 25.456901 7.346643 -0.000005 
51.312599 -10.753120 51.589485 -23.894867 -1.597374 1.723350 2.518319 0.201278 -0.012901 9.041426 0.401342 -0.036597 10.686564 0.400876 -0.041403 29.569306 -0.144634 3.748331 -19.003442 4.867387 3.915092 -3.141418 -74.455967 -5.259244 100.317645 -56.378120 99.224924 0.000001 0.000001 -0.000001 42.157792 -13.645757 4.102657 -0.000015 0.000024 -3.012120 -4.999605 -7.998721 -0.000025 -11.068296 68.501190 13.569746 110.497387 55.783070 -100.304340 0.000002 0.000001 0.000000 45.335603 12.205547 -3.809742 -0.000008 -0.000004 3.007049 -4.999844 7.998695 -0.000046 -72.901177 -163.333073 5.030491 179.999991 0.000006 -1.724002 75.650185 2.421742 1.792423 -0.000004 -0.000004 2.169821 73.491688 8.563653 -3.102629 25.458883 -7.355616 0.004772 -72.325727 168.654432 -2.341266 -0.000006 -0.000004 -1.300360 -105.534277 -4.245928 -3.627400 -0.000004 -0.000001 -1.727199 73.428789 -6.138561 -3.990084 25.456902 7.346643 -0.000004 
51.321400 -10.749516 51.599800 -23.895811 -1.601010 1.720298 2.518576 0.202135 -0.012831 9.041974 0.403055 -0.036504 10.687067 0.402590 -0.041332 29.603085 -0.130445 3.744383 -19.022261 4.878997 3.914290 -3.129498 -74.450230 -5.245824 100.320944 -56.380592 99.218647 -0.000001 0.000001 0.000000 42.164578 -13.646905 4.104847 -0.000015 0.000025 -3.012121 -4.999605 -7.998722 -0.000025 -11.089832 68.502891 13.593954 110.497516 55.781168 -100.302585 -0.000000 0.000000 -0.000000 45.337508 12.205153 -3.809763 -0.000008 -0.000003 3.007051 -4.999845 7.998698 -0.000045 -72.901840 -163.335327 5.027253 179.999991 0.000006 -1.724003 75.651790 2.424668 1.794826 -0.000004 -0.000003 2.169830 73.489468 8.563297 -3.101112 25.458886 -7.355615 0.004772 -72.321936 168.655484 -2.342788 -0.000005 -0.000004 -1.300420 -105.533048 -4.245887 -3.626352 -0.000003 -0.000000 -1.727201 73.428741 -6.137546 -3.993040 25.456902 7.346645 -0.000004 
